<svg width="144" height="30" viewBox="0 0 144 30" fill="none" xmlns="http://www.w3.org/2000/svg">
<path d="M6.36688 29V5.68L0.326875 9.8V5.12L6.96688 0.399999H11.7269V29H6.36688ZM28.2447 29.4C20.9647 29.4 16.2447 24.04 16.2447 15.44V14C16.2447 5.32 21.0447 -9.53674e-07 28.2447 -9.53674e-07C35.4847 -9.53674e-07 40.2047 5.28 40.2047 13.88V15.32C40.2047 23.92 35.7247 29.4 28.2447 29.4ZM28.3647 25.16C32.7647 25.16 34.8847 21.8 34.8847 15.32V13.92C34.8847 7.84 32.5647 4.16 28.2847 4.16C23.9647 4.16 21.6047 7.6 21.6047 13.96V15.4C21.6047 21.88 24.0847 25.16 28.3647 25.16ZM48.6162 14C44.6962 14 41.6562 11.04 41.6562 7.08C41.6562 3.08 44.8162 0.119998 48.6562 0.119998C52.4963 0.119998 55.5763 3 55.5763 7C55.5763 11.04 52.5362 14 48.6162 14ZM45.5762 29L64.0163 0.399999H67.3763L48.9762 29H45.5762ZM48.6562 10.76C50.5362 10.76 51.6962 9.4 51.6962 7.04C51.6962 4.72 50.5362 3.32 48.6562 3.32C46.7762 3.32 45.5762 4.64 45.5762 7.04C45.5762 9.48 46.7762 10.76 48.6562 10.76ZM64.2962 29.4C60.3763 29.4 57.3762 26.44 57.3762 22.48C57.3762 18.48 60.4963 15.52 64.3362 15.52C68.1762 15.52 71.2963 18.4 71.2963 22.4C71.2963 26.44 68.2162 29.4 64.2962 29.4ZM64.3362 26.16C66.2163 26.16 67.3763 24.8 67.3763 22.44C67.3763 20.12 66.2163 18.72 64.3362 18.72C62.4562 18.72 61.2563 20.04 61.2563 22.44C61.2563 24.88 62.4562 26.16 64.3362 26.16ZM87.2075 29.4C78.4475 29.4 72.7275 23.12 72.7275 14.88V14.56C72.7275 6.2 78.7275 -9.53674e-07 87.2075 -9.53674e-07C95.7275 -9.53674e-07 101.607 6.04 101.607 14.44V14.76C101.607 23.12 95.8875 29.4 87.2075 29.4ZM87.2875 25.12C92.6875 25.12 96.0875 21 96.0875 14.8V14.48C96.0875 8.6 92.8075 4.24 87.2075 4.24C81.6075 4.24 78.2875 8.36 78.2875 14.52V14.84C78.2875 21.08 82.0875 25.12 87.2875 25.12ZM105.146 29V0.399999H122.866V4.64H110.466V13.16H120.226V17.28H110.466V29H105.146ZM125.889 29V0.399999H143.609V4.64H131.209V13.16H140.969V17.28H131.209V29H125.889Z" fill="#D2981A" fill-opacity="0.6"/>
<path d="M6.36688 29V5.68L0.326875 9.8V5.12L6.96688 0.399999H11.7269V29H6.36688ZM28.2447 29.4C20.9647 29.4 16.2447 24.04 16.2447 15.44V14C16.2447 5.32 21.0447 -9.53674e-07 28.2447 -9.53674e-07C35.4847 -9.53674e-07 40.2047 5.28 40.2047 13.88V15.32C40.2047 23.92 35.7247 29.4 28.2447 29.4ZM28.3647 25.16C32.7647 25.16 34.8847 21.8 34.8847 15.32V13.92C34.8847 7.84 32.5647 4.16 28.2847 4.16C23.9647 4.16 21.6047 7.6 21.6047 13.96V15.4C21.6047 21.88 24.0847 25.16 28.3647 25.16ZM48.6162 14C44.6962 14 41.6562 11.04 41.6562 7.08C41.6562 3.08 44.8162 0.119998 48.6562 0.119998C52.4963 0.119998 55.5763 3 55.5763 7C55.5763 11.04 52.5362 14 48.6162 14ZM45.5762 29L64.0163 0.399999H67.3763L48.9762 29H45.5762ZM48.6562 10.76C50.5362 10.76 51.6962 9.4 51.6962 7.04C51.6962 4.72 50.5362 3.32 48.6562 3.32C46.7762 3.32 45.5762 4.64 45.5762 7.04C45.5762 9.48 46.7762 10.76 48.6562 10.76ZM64.2962 29.4C60.3763 29.4 57.3762 26.44 57.3762 22.48C57.3762 18.48 60.4963 15.52 64.3362 15.52C68.1762 15.52 71.2963 18.4 71.2963 22.4C71.2963 26.44 68.2162 29.4 64.2962 29.4ZM64.3362 26.16C66.2163 26.16 67.3763 24.8 67.3763 22.44C67.3763 20.12 66.2163 18.72 64.3362 18.72C62.4562 18.72 61.2563 20.04 61.2563 22.44C61.2563 24.88 62.4562 26.16 64.3362 26.16ZM87.2075 29.4C78.4475 29.4 72.7275 23.12 72.7275 14.88V14.56C72.7275 6.2 78.7275 -9.53674e-07 87.2075 -9.53674e-07C95.7275 -9.53674e-07 101.607 6.04 101.607 14.44V14.76C101.607 23.12 95.8875 29.4 87.2075 29.4ZM87.2875 25.12C92.6875 25.12 96.0875 21 96.0875 14.8V14.48C96.0875 8.6 92.8075 4.24 87.2075 4.24C81.6075 4.24 78.2875 8.36 78.2875 14.52V14.84C78.2875 21.08 82.0875 25.12 87.2875 25.12ZM105.146 29V0.399999H122.866V4.64H110.466V13.16H120.226V17.28H110.466V29H105.146ZM125.889 29V0.399999H143.609V4.64H131.209V13.16H140.969V17.28H131.209V29H125.889Z" fill="url(#paint0_linear_10194_5696)"/>
<defs>
<linearGradient id="paint0_linear_10194_5696" x1="23.1217" y1="8.52827" x2="121.513" y2="8.52827" gradientUnits="userSpaceOnUse">
<stop stop-color="#7D5317"/>
<stop offset="1" stop-color="#EDDF95"/>
</linearGradient>
</defs>
</svg>
